/* XPM */
static char *growlx[] = {
/* columns rows colors chars-per-pixel */
"16 16 102 2",
"   c #392D23",
".  c #403025",
"X  c #43362C",
"o  c #40372F",
"O  c #4A392C",
"+  c #503F32",
"@  c #58493D",
"#  c #5B4F43",
"$  c #615549",
"%  c #6F5D4D",
"&  c #6E5C4E",
"*  c #6C5D51",
"=  c #6C5E52",
"-  c #6D5F52",
";  c #6C5F53",
":  c #6F6154",
">  c #736051",
",  c #776454",
"<  c #766455",
"1  c #776557",
"2  c #7C6A5B",
"3  c #7D6B5B",
"4  c #78695D",
"5  c #7E6C5C",
"6  c #827061",
"7  c #807062",
"8  c #837263",
"9  c #807265",
"0  c #827264",
"q  c #847365",
"w  c #857567",
"e  c #8A7868",
"r  c #8B7969",
"t  c #8C7D6E",
"y  c #8F8074",
"u  c #918070",
"i  c #928170",
"p  c #938272",
"a  c #928375",
"s  c #968575",
"d  c #948577",
"f  c #998776",
"g  c #918478",
"h  c #938578",
"j  c #988879",
"k  c #9B8A79",
"l  c #9A897A",
"z  c #9A8A7A",
"x  c #9C8B7B",
"c  c #9A8C7E",
"v  c #9B8C7E",
"b  c #9D8D7D",
"n  c #9F8F7F",
"m  c #9C8D80",
"M  c #A19181",
"N  c #A19182",
"B  c #A29282",
"V  c #A19385",
"C  c #A29385",
"Z  c #A49485",
"A  c #A59587",
"S  c #A69686",
"D  c #A79889",
"F  c #A5988B",
"G  c #A7988A",
"H  c #A7998C",
"J  c #A79A8F",
"K  c #A89889",
"L  c #AB9B8C",
"P  c #AC9D8E",
"I  c #AC9F93",
"U  c #AC9F94",
"Y  c #ACA094",
"T  c #B0A192",
"R  c #B3A597",
"E  c #B1A599",
"W  c #B2A599",
"Q  c #B3A79B",
"!  c #B5A698",
"~  c #B5A99D",
"^  c #B6A99D",
"/  c #B8AA9C",
"(  c #B9AB9D",
")  c #B6ABA0",
"_  c #BBAFA3",
"`  c #BCAFA3",
"'  c #BDB0A3",
"]  c #BFB2A6",
"[  c #C2B5A9",
"{  c #C2B6AA",
"}  c #C3B6AA",
"|  c #C5BAAE",
" . c #C5BBB2",
".. c #CCC1B6",
"X. c #CDC2B7",
"o. c #CFC5BA",
"O. c #CEC5BB",
"+. c #CFC6BC",
"@. c #D3CAC1",
"#. c #D7CEC5",
"$. c #E7E3DD",
"%. c None",
/* pixels */
"%.%.%.%.%.%.%.%.%.%.%.%.%.%.%.%.",
"%.%.%.%.%.%.%.%.%.%.%.%.%.%.%.%.",
"%.%.%.%.%.%.%.%.%.Q  .%.%.%.%.%.",
"%.%.%.%.%.%.%.%.z 1 & 3 %.%.%.%.",
"%.%.%.$._ b R %.M < > M %.%.%.%.",
"%.%.%.I 1 v #.` S z ~ ' %.%.%.%.",
"%.%.%.%.5 0 ) @.C + a ] %.%.%.%.",
"%.%.%.%.L @ . Y Q X * T %.D %.%.",
"%.%.~ | +.Y = C / F H K M m +.%.",
"%.e 7 S w H [ [ ....~ 4 0 & q %.",
"%.%.%.x 2 7 [ O.R y F ; o p s %.",
"%.%.%.%.f x ! h O   a P s n %.%.",
"%.%.%.%.%.r p z t v C p q %.%.%.",
"%.%.%.%.%.%.%.$ : * # %.%.%.%.%.",
"%.%.%.%.%.%.%.%.%.%.%.%.%.%.%.%.",
"%.%.%.%.%.%.%.%.%.%.%.%.%.%.%.%."
};
