/* XPM */
static char *growl[] = {
/* columns rows colors chars-per-pixel */
"16 16 102 2",
"   c #372D14",
".  c #32302B",
"X  c #3D392E",
"o  c #4C3703",
"O  c #47360E",
"+  c #4C3F21",
"@  c #714C04",
"#  c #775403",
"$  c #624814",
"%  c #7E5C12",
"&  c #765D21",
"*  c #716138",
"=  c #75653C",
"-  c #5E5D5A",
";  c #645E48",
":  c #6E644F",
">  c #686660",
",  c #76797E",
"<  c #875D03",
"1  c #895F03",
"2  c #885C05",
"3  c #966705",
"4  c #926C0F",
"5  c #936713",
"6  c #996E12",
"7  c #93671A",
"8  c #967311",
"9  c #92731F",
"0  c #A47106",
"q  c #AF7507",
"w  c #AF7B05",
"e  c #B77E06",
"r  c #B87B06",
"t  c #837047",
"y  c #867648",
"u  c #82724E",
"i  c #AE820F",
"p  c #B88204",
"a  c #BC8304",
"s  c #B9830C",
"d  c #AF891F",
"f  c #9D8039",
"g  c #AA8528",
"h  c #AE8E2C",
"j  c #BC8A24",
"k  c #C58107",
"l  c #C18707",
"z  c #C58A02",
"x  c #CA8C03",
"c  c #C68508",
"v  c #C1860E",
"b  c #C4870D",
"n  c #CD8F0A",
"m  c #CC910A",
"M  c #D29104",
"N  c #D49605",
"B  c #D69705",
"V  c #DE9905",
"C  c #D3920C",
"Z  c #D4960D",
"A  c #D89508",
"S  c #CB8D10",
"D  c #C49114",
"F  c #C99015",
"G  c #D69814",
"H  c #DD9D17",
"J  c #E7A20C",
"K  c #E3A40E",
"L  c #E7A40D",
"P  c #EDA709",
"I  c #F0A808",
"U  c #F5B515",
"Y  c #F8B516",
"T  c #F4B61A",
"R  c #C69322",
"E  c #CA9F39",
"W  c #CBA030",
"Q  c #CCAC3E",
"!  c #EBAE23",
"~  c #E8AE25",
"^  c #F4BB22",
"/  c #E8B032",
"(  c #FFC121",
")  c #FAC22F",
"_  c #FFD239",
"`  c #958450",
"'  c #BE9B40",
"]  c #BCA662",
"[  c #C7AD5B",
"{  c #C9A85C",
"}  c #F0C844",
"|  c #F3C649",
" . c #F8CD4B",
".. c #908E85",
"X. c #A09884",
"o. c #A7A08B",
"O. c #ADA79B",
"+. c #B0AFAD",
"@. c #B9BCBF",
"#. c #C3C6CC",
"$. c #E0E4E9",
"%. c None",
/* pixels */
"%.%.%.%.%.%.%.%.%.%.%.%.%.%.%.%.",
"%.%.%.%.%.%.%.%.%.%.%.%.%.%.%.%.",
"%.%.%.%.%.%.%.%.%.O.@.%.%.%.%.%.",
"%.%.%.%.%.%.%.%.v : - 7 %.%.%.%.",
"%.%.%.$.+.j J %.n = * S %.%.%.%.",
"%.%.%.o.> h _ ~ C d Q ! %.%.%.%.",
"%.%.%.%.4 9 [  .F + ` / %.%.%.%.",
"%.%.%.%.G $ . W K O & H %.X.%.%.",
"%.%.{ ^ | E % m I N N A D ..#.%.",
"%., t R y ' Y T ) ( P 3 8 ; u %.",
"%.%.%.b 5 6 U } ] f Z 2 o i s %.",
"%.%.%.%.k c L g X   p V a x %.%.",
"%.%.%.%.%.q e l w z M r 0 %.%.%.",
"%.%.%.%.%.%.%.# 1 1 @ %.%.%.%.%.",
"%.%.%.%.%.%.%.%.%.%.%.%.%.%.%.%.",
"%.%.%.%.%.%.%.%.%.%.%.%.%.%.%.%."
};
